<?xml version="1.0" encoding="UTF-8"?>
<svg width="700pt" height="700pt" version="1.1" viewBox="80 0 540 540" xmlns="http://www.w3.org/2000/svg" xmlns:xlink="http://www.w3.org/1999/xlink">
 <g>
  <path d="m549.41 318.25c-1.0586-3.418-3.1875-6.4062-6.0664-8.5312-2.8828-2.1289-6.3672-3.2773-9.9492-3.2812h-82.598l22.398-30.07v-0.003906c23.109-30.34 34.625-67.93 32.48-106.01-5.543-82.879-73.305-147.95-154.28-147.95-80.973 0-148.73 65.074-154.28 147.95-2.0977 38.098 9.4805 75.691 32.648 106.01l22.398 30.07-79.969 0.003906c-3.4844-0.015625-6.8867 1.0547-9.7383 3.0625-2.8477 2.0078-5.0039 4.8516-6.1641 8.1367l-67.199 197.57c-1.8242 5.1523-1.0234 10.871 2.1406 15.328 3.1641 4.4531 8.2969 7.0938 13.762 7.0742h490c5.3359-0.011718 10.348-2.5508 13.508-6.8516 3.1602-4.2969 4.0898-9.8398 2.5078-14.934zm-199.41-216.1c16.742-0.089843 32.832 6.4844 44.727 18.27 11.891 11.785 18.605 27.816 18.664 44.562 0.058594 16.742-6.543 32.82-18.348 44.691-11.809 11.871-27.852 18.559-44.594 18.586-16.742 0.03125-32.812-6.5977-44.66-18.426-11.852-11.828-18.508-27.887-18.508-44.629-0.03125-16.672 6.5586-32.68 18.316-44.5 11.758-11.824 27.727-18.496 44.402-18.555zm-99.848 401.86h-121.69l24.414-71.961h101.25zm85.848-49.559v49.559h-52.191l4.5898-87.809c0.26562-4.6172-1.3906-9.1406-4.5703-12.5s-7.6016-5.2578-12.227-5.25h-107.24l19.879-58.41h92.961l60.762 81.09c3.168 4.25 8.1641 6.7578 13.469 6.7578 5.3008 0 10.297-2.5078 13.465-6.7578l60.594-81.09h95.535l11.199 36.008h-97.102v33.602h107.63l8.7344 28h-198.69c-4.457 0-8.7305 1.7695-11.879 4.9219-3.1523 3.1484-4.9219 7.4219-4.9219 11.879zm33.602 49.391v-32.594h192.41l10.137 32.762z"/>
 </g>
</svg>
