<?xml version="1.0" encoding="UTF-8"?>
<svg version="1.1" viewBox="190 45 320 460" xmlns="http://www.w3.org/2000/svg" xmlns:xlink="http://www.w3.org/1999/xlink">
 <g>
  <path d="m426.11 235.4c-2.0898-36.734-8.0664-54.957-8.3984-81.898 13.832-1.8906 24.062-7.6836 33.602-8.3984 3.7461-7.2344 19.703-27.648 16.801-42 2.8359 2.6758 4.1914 6.3789 6.3008 0-7.0859-1.9844-0.36719-3.1406-6.3008-4.1992 13.992-19.672-14.453-21.91-14.707-31.5 2.1094 0 2.5039 1.6992 4.1992 2.1016-6.3594-4.332-17.551-18.129-29.398-8.3984-0.57812-5.9414-1.5664-7.1484-8.3984-10.5h-39.898c-2.1172 5.5039-17.484 3.1836-25.199 0h-12.602c-5.2656 3.4141-22.602 7.5352-29.398 8.3984 0.54297-2.9492 4.6016-2.3906 6.3008-4.1992-49.938-14.488-100.98 17.668-88.199 65.102 1.4102 5.2344 6.1094 6.5117 10.5 12.602 10.176 14.105 17.324 23.398 39.898 23.102-7.3594 27.527-8.3477 52.465-12.602 79.801-44.574 5.8281-65.18 35.621-73.5 77.699v23.102c2.8164 1.3828 3.9102 4.4961 4.1992 8.3984 42.352 5.1445 97.203-0.54297 138.6 2.1016 1.3984 25.156 2.6328 69.922 4.1992 94.5 1.2969 20.316-12.539 53.91 10.5 58.809 16.309-43.094 2.6602-120.33 8.3984-157.5 44.73-4.6914 104.82 3.4727 138.6-6.3086 4.5391-62.656-30.625-85.578-73.5-100.81zm-37.801 86.098c1.7344-7.543-21.664-2.3906-31.5 0 0.26953-8.75-16.59-9.457-27.301-2.1016 1.5742-3.9648 6.2656-1.4531 2.1016-6.3008-4.6719 7.5781-15.602-3.4023-16.801 8.3984-4.3672-1.1797-4.4531-3.2734-2.1016-6.3008-18.586-0.41016-32.715-2.9648-56.699 2.1016-3.2891-0.74219 1.8359-3.7031-2.1016-4.1992-6.6406 4.2344-13.625 3.4492-23.102 8.3984-14.48-44.066 39.496-51.746 65.102-69.301-0.42969-41.223 18.566-80.035 12.602-123.9-12.016 1.4883-15.023-6.6328-25.199 0-9.582-5.793-23.562-9.8164-25.199-18.898-7.1758-39.883 97.406-26.461 123.9-27.301 17.23-5.0391 55.746-5.1992 62.992 12.602 2.625 29.918-16.02 38.57-46.191 35.699-4.8477-0.64844-2.3359 6.0625-6.3086 6.3008 5.1641 41.746 13.535 80.266 21 119.7 41.266 3.5352 67.727 21.875 67.199 67.199-35.055 1.4648-59.168-6.8203-92.391-2.0977z" fill-rule="evenodd"/>
 </g>
</svg>
